<mxfile host="app.diagrams.net" modified="2023-10-02T12:15:57.345Z" agent="Mozilla/5.0 (Windows NT 10.0; Win64; x64) AppleWebKit/537.36 (KHTML, like Gecko) Chrome/117.0.0.0 Safari/537.36 Edg/117.0.2045.47" etag="WYLSH2JgwybcAru4ycGL" version="22.0.0" type="github">
  <diagram name="Page-1" id="mIhtWHkfx9fTa6XTiC2o">
    <mxGraphModel dx="835" dy="474" grid="1" gridSize="10" guides="1" tooltips="1" connect="1" arrows="1" fold="1" page="1" pageScale="1" pageWidth="850" pageHeight="1100" math="0" shadow="0">
      <root>
        <mxCell id="0" />
        <mxCell id="1" parent="0" />
        <mxCell id="5lB1eDmUe7ZuBebXjrFU-2" style="edgeStyle=orthogonalEdgeStyle;rounded=0;orthogonalLoop=1;jettySize=auto;html=1;exitX=0;exitY=0.5;exitDx=0;exitDy=0;" edge="1" parent="1" source="5lB1eDmUe7ZuBebXjrFU-1">
          <mxGeometry relative="1" as="geometry">
            <mxPoint x="150" y="100.16666666666674" as="targetPoint" />
          </mxGeometry>
        </mxCell>
        <mxCell id="5lB1eDmUe7ZuBebXjrFU-5" style="edgeStyle=orthogonalEdgeStyle;rounded=0;orthogonalLoop=1;jettySize=auto;html=1;exitX=0.5;exitY=1;exitDx=0;exitDy=0;entryX=1;entryY=0.5;entryDx=0;entryDy=0;" edge="1" parent="1" source="5lB1eDmUe7ZuBebXjrFU-1" target="5lB1eDmUe7ZuBebXjrFU-4">
          <mxGeometry relative="1" as="geometry" />
        </mxCell>
        <mxCell id="5lB1eDmUe7ZuBebXjrFU-7" style="edgeStyle=orthogonalEdgeStyle;rounded=0;orthogonalLoop=1;jettySize=auto;html=1;exitX=0.5;exitY=1;exitDx=0;exitDy=0;" edge="1" parent="1" source="5lB1eDmUe7ZuBebXjrFU-1" target="5lB1eDmUe7ZuBebXjrFU-6">
          <mxGeometry relative="1" as="geometry" />
        </mxCell>
        <mxCell id="5lB1eDmUe7ZuBebXjrFU-1" value="User going to select 2 folders" style="rounded=1;whiteSpace=wrap;html=1;" vertex="1" parent="1">
          <mxGeometry x="260" y="70" width="120" height="60" as="geometry" />
        </mxCell>
        <mxCell id="5lB1eDmUe7ZuBebXjrFU-3" value="We need to store which folders he select" style="rounded=1;whiteSpace=wrap;html=1;" vertex="1" parent="1">
          <mxGeometry x="30" y="70" width="120" height="60" as="geometry" />
        </mxCell>
        <mxCell id="5lB1eDmUe7ZuBebXjrFU-4" value="We need to have 2 handels fisrt for opening second for select" style="rounded=1;whiteSpace=wrap;html=1;" vertex="1" parent="1">
          <mxGeometry x="30" y="160" width="120" height="60" as="geometry" />
        </mxCell>
        <mxCell id="5lB1eDmUe7ZuBebXjrFU-6" value="Also for every folder we need to know is it selected or no" style="rounded=1;whiteSpace=wrap;html=1;" vertex="1" parent="1">
          <mxGeometry x="260" y="240" width="120" height="60" as="geometry" />
        </mxCell>
      </root>
    </mxGraphModel>
  </diagram>
</mxfile>
